<mxfile host="65bd71144e">
    <diagram id="aZIjorGY7UXWxZZk_VA7" name="Page-1">
        <mxGraphModel dx="1600" dy="3818" grid="1" gridSize="10" guides="1" tooltips="1" connect="1" arrows="1" fold="1" page="1" pageScale="1" pageWidth="850" pageHeight="1100" math="0" shadow="0">
            <root>
                <mxCell id="0"/>
                <mxCell id="1" parent="0"/>
                <mxCell id="VtJmyBHDyWRbUc47lEjj-71" style="edgeStyle=orthogonalEdgeStyle;rounded=0;orthogonalLoop=1;jettySize=auto;html=1;endArrow=none;endFill=0;exitX=1;exitY=0.5;exitDx=0;exitDy=0;" parent="1" source="8Mmd9B4hTZwMJkrOTyFo-28" target="8Mmd9B4hTZwMJkrOTyFo-43" edge="1">
                    <mxGeometry relative="1" as="geometry">
                        <Array as="points">
                            <mxPoint x="-220" y="-1126"/>
                            <mxPoint x="-220" y="-1604"/>
                            <mxPoint x="280" y="-1604"/>
                        </Array>
                    </mxGeometry>
                </mxCell>
                <mxCell id="4fSHhRv6Qn75-ox5Rb2t-7" value="0...*" style="edgeLabel;html=1;align=center;verticalAlign=middle;resizable=0;points=[];" parent="VtJmyBHDyWRbUc47lEjj-71" vertex="1" connectable="0">
                    <mxGeometry x="-0.8218" relative="1" as="geometry">
                        <mxPoint x="-52" y="39" as="offset"/>
                    </mxGeometry>
                </mxCell>
                <mxCell id="4fSHhRv6Qn75-ox5Rb2t-8" value="0...*" style="edgeLabel;html=1;align=center;verticalAlign=middle;resizable=0;points=[];" parent="VtJmyBHDyWRbUc47lEjj-71" vertex="1" connectable="0">
                    <mxGeometry x="0.9727" y="-1" relative="1" as="geometry">
                        <mxPoint x="-1" y="-3" as="offset"/>
                    </mxGeometry>
                </mxCell>
                <mxCell id="8Mmd9B4hTZwMJkrOTyFo-38" style="rounded=0;orthogonalLoop=1;jettySize=auto;elbow=vertical;html=1;endArrow=block;endFill=0;edgeStyle=orthogonalEdgeStyle;exitX=0.25;exitY=0;exitDx=0;exitDy=0;" parent="1" source="8Mmd9B4hTZwMJkrOTyFo-10" target="zlj9pYZFUHFNdbRgXwXU-6" edge="1">
                    <mxGeometry relative="1" as="geometry">
                        <mxPoint x="180" y="-1830" as="targetPoint"/>
                        <Array as="points">
                            <mxPoint x="860" y="-1810"/>
                        </Array>
                        <mxPoint x="790" y="-1610" as="sourcePoint"/>
                    </mxGeometry>
                </mxCell>
                <mxCell id="4fSHhRv6Qn75-ox5Rb2t-64" style="edgeStyle=orthogonalEdgeStyle;rounded=0;orthogonalLoop=1;jettySize=auto;html=1;entryX=0.838;entryY=1.021;entryDx=0;entryDy=0;entryPerimeter=0;endArrow=none;endFill=0;" parent="1" source="8Mmd9B4hTZwMJkrOTyFo-10" target="8Mmd9B4hTZwMJkrOTyFo-28" edge="1">
                    <mxGeometry relative="1" as="geometry">
                        <mxPoint x="780" y="-367.3333333333333" as="targetPoint"/>
                        <Array as="points">
                            <mxPoint x="840" y="-820"/>
                            <mxPoint x="-310" y="-820"/>
                        </Array>
                    </mxGeometry>
                </mxCell>
                <mxCell id="4fSHhRv6Qn75-ox5Rb2t-66" value="1" style="edgeLabel;html=1;align=center;verticalAlign=middle;resizable=0;points=[];" parent="4fSHhRv6Qn75-ox5Rb2t-64" vertex="1" connectable="0">
                    <mxGeometry x="-0.9862" y="1" relative="1" as="geometry">
                        <mxPoint y="-1" as="offset"/>
                    </mxGeometry>
                </mxCell>
                <mxCell id="4fSHhRv6Qn75-ox5Rb2t-67" value="0...*" style="edgeLabel;html=1;align=center;verticalAlign=middle;resizable=0;points=[];" parent="4fSHhRv6Qn75-ox5Rb2t-64" vertex="1" connectable="0">
                    <mxGeometry x="0.9838" y="4" relative="1" as="geometry">
                        <mxPoint y="-3" as="offset"/>
                    </mxGeometry>
                </mxCell>
                <mxCell id="8Mmd9B4hTZwMJkrOTyFo-10" value=" Fisher" style="swimlane;fontStyle=1;align=center;verticalAlign=top;childLayout=stackLayout;horizontal=1;startSize=30;horizontalStack=0;resizeParent=1;resizeParentMax=0;resizeLast=0;collapsible=1;marginBottom=0;" parent="1" vertex="1">
                    <mxGeometry x="820" y="-1360" width="160" height="154" as="geometry"/>
                </mxCell>
                <mxCell id="jIOh63rb734gAdqWBJmO-16" value="&lt;span style=&quot;font-size: 13px;&quot;&gt;+ fishingLiscence: int&lt;/span&gt;&lt;br style=&quot;border-color: var(--border-color); padding: 0px; margin: 0px; font-size: 13px;&quot;&gt;&amp;nbsp;+ Rating" style="text;html=1;align=left;verticalAlign=middle;resizable=0;points=[];autosize=1;strokeColor=none;fillColor=none;" parent="8Mmd9B4hTZwMJkrOTyFo-10" vertex="1">
                    <mxGeometry y="30" width="160" height="40" as="geometry"/>
                </mxCell>
                <mxCell id="8Mmd9B4hTZwMJkrOTyFo-12" value="" style="line;strokeWidth=1;fillColor=none;align=left;verticalAlign=middle;spacingTop=-1;spacingLeft=3;spacingRight=3;rotatable=0;labelPosition=right;points=[];portConstraint=eastwest;strokeColor=inherit;" parent="8Mmd9B4hTZwMJkrOTyFo-10" vertex="1">
                    <mxGeometry y="70" width="160" height="8" as="geometry"/>
                </mxCell>
                <mxCell id="8Mmd9B4hTZwMJkrOTyFo-13" value="+ Register&#10;+ Buy Boats&#10;+ createJobOffer&#10;+ updateJobOffer" style="text;strokeColor=none;fillColor=none;align=left;verticalAlign=top;spacingLeft=4;spacingRight=4;overflow=hidden;rotatable=0;points=[[0,0.5],[1,0.5]];portConstraint=eastwest;" parent="8Mmd9B4hTZwMJkrOTyFo-10" vertex="1">
                    <mxGeometry y="78" width="160" height="76" as="geometry"/>
                </mxCell>
                <mxCell id="8Mmd9B4hTZwMJkrOTyFo-39" style="edgeStyle=orthogonalEdgeStyle;rounded=0;orthogonalLoop=1;jettySize=auto;html=1;endArrow=block;endFill=0;elbow=vertical;entryX=0;entryY=0.5;entryDx=0;entryDy=0;exitX=0.25;exitY=0;exitDx=0;exitDy=0;" parent="1" source="8Mmd9B4hTZwMJkrOTyFo-25" target="zlj9pYZFUHFNdbRgXwXU-6" edge="1">
                    <mxGeometry relative="1" as="geometry">
                        <mxPoint x="340" y="-160" as="targetPoint"/>
                        <mxPoint x="-358.7335283885823" y="-1642" as="sourcePoint"/>
                        <Array as="points">
                            <mxPoint x="-405" y="-1829"/>
                        </Array>
                    </mxGeometry>
                </mxCell>
                <mxCell id="8Mmd9B4hTZwMJkrOTyFo-25" value=" DeliveryMan" style="swimlane;fontStyle=1;align=center;verticalAlign=top;childLayout=stackLayout;horizontal=1;startSize=26;horizontalStack=0;resizeParent=1;resizeParentMax=0;resizeLast=0;collapsible=1;marginBottom=0;" parent="1" vertex="1">
                    <mxGeometry x="-445" y="-1220" width="159" height="110" as="geometry"/>
                </mxCell>
                <mxCell id="8Mmd9B4hTZwMJkrOTyFo-26" value="+ fisher&#10;+ maxDeliveriesInDay" style="text;strokeColor=none;fillColor=none;align=left;verticalAlign=top;spacingLeft=4;spacingRight=4;overflow=hidden;rotatable=0;points=[[0,0.5],[1,0.5]];portConstraint=eastwest;" parent="8Mmd9B4hTZwMJkrOTyFo-25" vertex="1">
                    <mxGeometry y="26" width="159" height="44" as="geometry"/>
                </mxCell>
                <mxCell id="8Mmd9B4hTZwMJkrOTyFo-27" value="" style="line;strokeWidth=1;fillColor=none;align=left;verticalAlign=middle;spacingTop=-1;spacingLeft=3;spacingRight=3;rotatable=0;labelPosition=right;points=[];portConstraint=eastwest;strokeColor=inherit;" parent="8Mmd9B4hTZwMJkrOTyFo-25" vertex="1">
                    <mxGeometry y="70" width="159" height="8" as="geometry"/>
                </mxCell>
                <mxCell id="8Mmd9B4hTZwMJkrOTyFo-28" value="+ Register&#10;" style="text;strokeColor=none;fillColor=none;align=left;verticalAlign=top;spacingLeft=4;spacingRight=4;overflow=hidden;rotatable=0;points=[[0,0.5],[1,0.5]];portConstraint=eastwest;" parent="8Mmd9B4hTZwMJkrOTyFo-25" vertex="1">
                    <mxGeometry y="78" width="159" height="32" as="geometry"/>
                </mxCell>
                <mxCell id="2" style="edgeStyle=none;html=1;exitX=0.5;exitY=0;exitDx=0;exitDy=0;endArrow=block;endFill=0;" parent="1" source="8Mmd9B4hTZwMJkrOTyFo-34" target="zlj9pYZFUHFNdbRgXwXU-6" edge="1">
                    <mxGeometry relative="1" as="geometry"/>
                </mxCell>
                <mxCell id="8Mmd9B4hTZwMJkrOTyFo-34" value="Admin" style="swimlane;fontStyle=1;align=center;verticalAlign=top;childLayout=stackLayout;horizontal=1;startSize=26;horizontalStack=0;resizeParent=1;resizeParentMax=0;resizeLast=0;collapsible=1;marginBottom=0;" parent="1" vertex="1">
                    <mxGeometry x="-21" y="-1730" width="240" height="100" as="geometry"/>
                </mxCell>
                <mxCell id="8Mmd9B4hTZwMJkrOTyFo-36" value="" style="line;strokeWidth=1;fillColor=none;align=left;verticalAlign=middle;spacingTop=-1;spacingLeft=3;spacingRight=3;rotatable=0;labelPosition=right;points=[];portConstraint=eastwest;strokeColor=inherit;" parent="8Mmd9B4hTZwMJkrOTyFo-34" vertex="1">
                    <mxGeometry y="26" width="240" height="8" as="geometry"/>
                </mxCell>
                <mxCell id="8Mmd9B4hTZwMJkrOTyFo-37" value="+ getAccounts(table)&#10;+ DeleteAccount(table, id)&#10;&#10;+ DeleteProduct" style="text;strokeColor=none;fillColor=none;align=left;verticalAlign=top;spacingLeft=4;spacingRight=4;overflow=hidden;rotatable=0;points=[[0,0.5],[1,0.5]];portConstraint=eastwest;" parent="8Mmd9B4hTZwMJkrOTyFo-34" vertex="1">
                    <mxGeometry y="34" width="240" height="66" as="geometry"/>
                </mxCell>
                <mxCell id="8Mmd9B4hTZwMJkrOTyFo-44" style="edgeStyle=none;rounded=0;orthogonalLoop=1;jettySize=auto;html=1;endArrow=block;endFill=0;elbow=vertical;exitX=0;exitY=0.5;exitDx=0;exitDy=0;entryX=0.997;entryY=0.024;entryDx=0;entryDy=0;entryPerimeter=0;" parent="1" source="8Mmd9B4hTZwMJkrOTyFo-43" target="zlj9pYZFUHFNdbRgXwXU-6" edge="1">
                    <mxGeometry relative="1" as="geometry">
                        <mxPoint x="592" y="-187" as="targetPoint"/>
                    </mxGeometry>
                </mxCell>
                <mxCell id="VtJmyBHDyWRbUc47lEjj-67" style="rounded=0;orthogonalLoop=1;jettySize=auto;html=1;startArrow=none;endArrow=none;endFill=0;edgeStyle=orthogonalEdgeStyle;exitX=1;exitY=0.5;exitDx=0;exitDy=0;entryX=0.688;entryY=1;entryDx=0;entryDy=0;entryPerimeter=0;" parent="1" source="8Mmd9B4hTZwMJkrOTyFo-43" target="VtJmyBHDyWRbUc47lEjj-51" edge="1">
                    <mxGeometry relative="1" as="geometry">
                        <mxPoint x="532" y="-1977" as="targetPoint"/>
                        <mxPoint x="502" y="-1847" as="sourcePoint"/>
                    </mxGeometry>
                </mxCell>
                <mxCell id="4fSHhRv6Qn75-ox5Rb2t-3" value="0...*" style="edgeLabel;html=1;align=center;verticalAlign=middle;resizable=0;points=[];" parent="VtJmyBHDyWRbUc47lEjj-67" vertex="1" connectable="0">
                    <mxGeometry x="0.8312" y="-4" relative="1" as="geometry">
                        <mxPoint y="-1" as="offset"/>
                    </mxGeometry>
                </mxCell>
                <mxCell id="4fSHhRv6Qn75-ox5Rb2t-4" value="1" style="edgeLabel;html=1;align=center;verticalAlign=middle;resizable=0;points=[];" parent="VtJmyBHDyWRbUc47lEjj-67" vertex="1" connectable="0">
                    <mxGeometry x="-0.9293" y="1" relative="1" as="geometry">
                        <mxPoint x="4" as="offset"/>
                    </mxGeometry>
                </mxCell>
                <mxCell id="8Mmd9B4hTZwMJkrOTyFo-40" value="Client" style="swimlane;fontStyle=1;align=center;verticalAlign=top;childLayout=stackLayout;horizontal=1;startSize=26;horizontalStack=0;resizeParent=1;resizeParentMax=0;resizeLast=0;collapsible=1;marginBottom=0;" parent="1" vertex="1">
                    <mxGeometry x="242" y="-2068" width="160" height="200" as="geometry"/>
                </mxCell>
                <mxCell id="8Mmd9B4hTZwMJkrOTyFo-41" value="- payementInfo" style="text;strokeColor=none;fillColor=none;align=left;verticalAlign=top;spacingLeft=4;spacingRight=4;overflow=hidden;rotatable=0;points=[[0,0.5],[1,0.5]];portConstraint=eastwest;" parent="8Mmd9B4hTZwMJkrOTyFo-40" vertex="1">
                    <mxGeometry y="26" width="160" height="26" as="geometry"/>
                </mxCell>
                <mxCell id="8Mmd9B4hTZwMJkrOTyFo-42" value="" style="line;strokeWidth=1;fillColor=none;align=left;verticalAlign=middle;spacingTop=-1;spacingLeft=3;spacingRight=3;rotatable=0;labelPosition=right;points=[];portConstraint=eastwest;strokeColor=inherit;" parent="8Mmd9B4hTZwMJkrOTyFo-40" vertex="1">
                    <mxGeometry y="52" width="160" height="8" as="geometry"/>
                </mxCell>
                <mxCell id="8Mmd9B4hTZwMJkrOTyFo-43" value="+ Register&#10;+ buyFishProduct&#10;+ buyFishingEquipement&#10;&#10;+ getProduct&#10;+ getProducts&#10;&#10;+ RateDeliveryMan&#10;+ RateFisher" style="text;strokeColor=none;fillColor=none;align=left;verticalAlign=top;spacingLeft=4;spacingRight=4;overflow=hidden;rotatable=0;points=[[0,0.5],[1,0.5]];portConstraint=eastwest;" parent="8Mmd9B4hTZwMJkrOTyFo-40" vertex="1">
                    <mxGeometry y="60" width="160" height="140" as="geometry"/>
                </mxCell>
                <mxCell id="zlj9pYZFUHFNdbRgXwXU-3" value="User" style="swimlane;fontStyle=1;align=center;verticalAlign=top;childLayout=stackLayout;horizontal=1;startSize=26;horizontalStack=0;resizeParent=1;resizeParentMax=0;resizeLast=0;collapsible=1;marginBottom=0;" parent="1" vertex="1">
                    <mxGeometry x="19" y="-2018" width="160" height="240" as="geometry"/>
                </mxCell>
                <mxCell id="zlj9pYZFUHFNdbRgXwXU-4" value="+ firstName : string&#10;+ lastName : string&#10;+ email : string&#10;- password : string&#10;+ phone number : int&#10;+ address : string&#10;+ photo" style="text;strokeColor=none;fillColor=none;align=left;verticalAlign=top;spacingLeft=4;spacingRight=4;overflow=hidden;rotatable=0;points=[[0,0.5],[1,0.5]];portConstraint=eastwest;" parent="zlj9pYZFUHFNdbRgXwXU-3" vertex="1">
                    <mxGeometry y="26" width="160" height="104" as="geometry"/>
                </mxCell>
                <mxCell id="zlj9pYZFUHFNdbRgXwXU-5" value="" style="line;strokeWidth=1;fillColor=none;align=left;verticalAlign=middle;spacingTop=-1;spacingLeft=3;spacingRight=3;rotatable=0;labelPosition=right;points=[];portConstraint=eastwest;strokeColor=inherit;" parent="zlj9pYZFUHFNdbRgXwXU-3" vertex="1">
                    <mxGeometry y="130" width="160" height="8" as="geometry"/>
                </mxCell>
                <mxCell id="zlj9pYZFUHFNdbRgXwXU-6" value="+ login&#10;+ forgot password&#10;+ deleteAccount&#10;+ getAccount&#10;+ updateAccount&#10;+ logout" style="text;strokeColor=none;fillColor=none;align=left;verticalAlign=top;spacingLeft=4;spacingRight=4;overflow=hidden;rotatable=0;points=[[0,0.5],[1,0.5]];portConstraint=eastwest;" parent="zlj9pYZFUHFNdbRgXwXU-3" vertex="1">
                    <mxGeometry y="138" width="160" height="102" as="geometry"/>
                </mxCell>
                <mxCell id="zlj9pYZFUHFNdbRgXwXU-14" value="Vehicle" style="swimlane;fontStyle=1;align=center;verticalAlign=top;childLayout=stackLayout;horizontal=1;startSize=26;horizontalStack=0;resizeParent=1;resizeParentMax=0;resizeLast=0;collapsible=1;marginBottom=0;" parent="1" vertex="1">
                    <mxGeometry x="-80" y="-1572" width="160" height="240" as="geometry">
                        <mxRectangle x="500" y="-190" width="70" height="30" as="alternateBounds"/>
                    </mxGeometry>
                </mxCell>
                <mxCell id="zlj9pYZFUHFNdbRgXwXU-15" value="+ registrationMatricule&#10;+ make&#10;+ model&#10;+ capacity &#10;+ deliveryMan&#10;+ photo&#10;+ type&#10;+ Insurance" style="text;strokeColor=none;fillColor=none;align=left;verticalAlign=top;spacingLeft=4;spacingRight=4;overflow=hidden;rotatable=0;points=[[0,0.5],[1,0.5]];portConstraint=eastwest;" parent="zlj9pYZFUHFNdbRgXwXU-14" vertex="1">
                    <mxGeometry y="26" width="160" height="124" as="geometry"/>
                </mxCell>
                <mxCell id="zlj9pYZFUHFNdbRgXwXU-16" value="" style="line;strokeWidth=1;fillColor=none;align=left;verticalAlign=middle;spacingTop=-1;spacingLeft=3;spacingRight=3;rotatable=0;labelPosition=right;points=[];portConstraint=eastwest;strokeColor=inherit;" parent="zlj9pYZFUHFNdbRgXwXU-14" vertex="1">
                    <mxGeometry y="150" width="160" height="10" as="geometry"/>
                </mxCell>
                <mxCell id="zlj9pYZFUHFNdbRgXwXU-17" value="+ createVehicle&#10;+ updateVehicle&#10;+ getVehicle&#10;+ getVehicles&#10;+ DeleteVehicle" style="text;strokeColor=none;fillColor=none;align=left;verticalAlign=top;spacingLeft=4;spacingRight=4;overflow=hidden;rotatable=0;points=[[0,0.5,0,0,0],[0.46,1,0,0,3]];portConstraint=eastwest;" parent="zlj9pYZFUHFNdbRgXwXU-14" vertex="1">
                    <mxGeometry y="160" width="160" height="80" as="geometry"/>
                </mxCell>
                <mxCell id="zlj9pYZFUHFNdbRgXwXU-23" value="Product" style="swimlane;fontStyle=1;align=center;verticalAlign=top;childLayout=stackLayout;horizontal=1;startSize=26;horizontalStack=0;resizeParent=1;resizeParentMax=0;resizeLast=0;collapsible=1;marginBottom=0;" parent="1" vertex="1">
                    <mxGeometry x="792" y="-2213" width="160" height="260" as="geometry">
                        <mxRectangle x="500" y="-190" width="70" height="30" as="alternateBounds"/>
                    </mxGeometry>
                </mxCell>
                <mxCell id="zlj9pYZFUHFNdbRgXwXU-24" value="+ title&#10;+ fishType&#10;+ phtoto&#10;+ quantity&#10;+ price&#10;+ dateOfFishing&#10;+ description" style="text;strokeColor=none;fillColor=none;align=left;verticalAlign=top;spacingLeft=4;spacingRight=4;overflow=hidden;rotatable=0;points=[[0,0.5],[1,0.5]];portConstraint=eastwest;" parent="zlj9pYZFUHFNdbRgXwXU-23" vertex="1">
                    <mxGeometry y="26" width="160" height="114" as="geometry"/>
                </mxCell>
                <mxCell id="zlj9pYZFUHFNdbRgXwXU-25" value="" style="line;strokeWidth=1;fillColor=none;align=left;verticalAlign=middle;spacingTop=-1;spacingLeft=3;spacingRight=3;rotatable=0;labelPosition=right;points=[];portConstraint=eastwest;strokeColor=inherit;" parent="zlj9pYZFUHFNdbRgXwXU-23" vertex="1">
                    <mxGeometry y="140" width="160" height="10" as="geometry"/>
                </mxCell>
                <mxCell id="zlj9pYZFUHFNdbRgXwXU-26" value="+ createProduct&#10;+ updateProduct&#10;+ getProduct&#10;+ getProducts&#10;+ DeleteProduct&#10;+ buyFishingEquipement" style="text;strokeColor=none;fillColor=none;align=left;verticalAlign=top;spacingLeft=4;spacingRight=4;overflow=hidden;rotatable=0;points=[[0,0.5],[1,0.5]];portConstraint=eastwest;" parent="zlj9pYZFUHFNdbRgXwXU-23" vertex="1">
                    <mxGeometry y="150" width="160" height="110" as="geometry"/>
                </mxCell>
                <mxCell id="zlj9pYZFUHFNdbRgXwXU-27" value="JobOffers" style="swimlane;fontStyle=1;align=center;verticalAlign=top;childLayout=stackLayout;horizontal=1;startSize=26;horizontalStack=0;resizeParent=1;resizeParentMax=0;resizeLast=0;collapsible=1;marginBottom=0;fillColor=#e1d5e7;strokeColor=#9673a6;" parent="1" vertex="1">
                    <mxGeometry x="1151" y="-1190" width="160" height="220" as="geometry">
                        <mxRectangle x="500" y="-190" width="70" height="30" as="alternateBounds"/>
                    </mxGeometry>
                </mxCell>
                <mxCell id="zlj9pYZFUHFNdbRgXwXU-28" value="+ id&#10;+ numberOfPosts&#10;+ description&#10;+ qualifications&#10;+ schedule&#10;+ salary&#10;+ deliveriesPerDay&#10;+ vehicleRequired" style="text;strokeColor=none;fillColor=none;align=left;verticalAlign=top;spacingLeft=4;spacingRight=4;overflow=hidden;rotatable=0;points=[[0,0.5],[1,0.5]];portConstraint=eastwest;" parent="zlj9pYZFUHFNdbRgXwXU-27" vertex="1">
                    <mxGeometry y="26" width="160" height="124" as="geometry"/>
                </mxCell>
                <mxCell id="zlj9pYZFUHFNdbRgXwXU-29" value="" style="line;strokeWidth=1;fillColor=none;align=left;verticalAlign=middle;spacingTop=-1;spacingLeft=3;spacingRight=3;rotatable=0;labelPosition=right;points=[];portConstraint=eastwest;strokeColor=inherit;" parent="zlj9pYZFUHFNdbRgXwXU-27" vertex="1">
                    <mxGeometry y="150" width="160" height="10" as="geometry"/>
                </mxCell>
                <mxCell id="zlj9pYZFUHFNdbRgXwXU-30" value="+ getJobOffer&#10;+ getJobOffers&#10;+ DeleteJobOffer" style="text;strokeColor=none;fillColor=none;align=left;verticalAlign=top;spacingLeft=4;spacingRight=4;overflow=hidden;rotatable=0;points=[[0,0.5],[1,0.5]];portConstraint=eastwest;" parent="zlj9pYZFUHFNdbRgXwXU-27" vertex="1">
                    <mxGeometry y="160" width="160" height="60" as="geometry"/>
                </mxCell>
                <mxCell id="VtJmyBHDyWRbUc47lEjj-2" style="edgeStyle=orthogonalEdgeStyle;rounded=0;orthogonalLoop=1;jettySize=auto;html=1;entryX=1;entryY=0.25;entryDx=0;entryDy=0;endArrow=none;endFill=0;exitX=1;exitY=0.5;exitDx=0;exitDy=0;" parent="1" source="zlj9pYZFUHFNdbRgXwXU-24" target="8Mmd9B4hTZwMJkrOTyFo-10" edge="1">
                    <mxGeometry relative="1" as="geometry">
                        <Array as="points">
                            <mxPoint x="1010" y="-2130"/>
                            <mxPoint x="1010" y="-1321"/>
                        </Array>
                    </mxGeometry>
                </mxCell>
                <mxCell id="VtJmyBHDyWRbUc47lEjj-24" value="0...*" style="edgeLabel;html=1;align=center;verticalAlign=middle;resizable=0;points=[];" parent="VtJmyBHDyWRbUc47lEjj-2" vertex="1" connectable="0">
                    <mxGeometry x="-0.9632" y="-2" relative="1" as="geometry">
                        <mxPoint x="16" y="-15" as="offset"/>
                    </mxGeometry>
                </mxCell>
                <mxCell id="VtJmyBHDyWRbUc47lEjj-25" value="1" style="edgeLabel;html=1;align=center;verticalAlign=middle;resizable=0;points=[];" parent="VtJmyBHDyWRbUc47lEjj-2" vertex="1" connectable="0">
                    <mxGeometry x="0.9845" y="1" relative="1" as="geometry">
                        <mxPoint x="17" y="-1" as="offset"/>
                    </mxGeometry>
                </mxCell>
                <mxCell id="VtJmyBHDyWRbUc47lEjj-8" style="edgeStyle=orthogonalEdgeStyle;rounded=0;orthogonalLoop=1;jettySize=auto;html=1;exitX=0;exitY=0.5;exitDx=0;exitDy=0;entryX=0.75;entryY=0;entryDx=0;entryDy=0;endArrow=none;endFill=0;" parent="1" source="zlj9pYZFUHFNdbRgXwXU-15" target="8Mmd9B4hTZwMJkrOTyFo-25" edge="1">
                    <mxGeometry relative="1" as="geometry">
                        <mxPoint x="-290" y="-1553" as="targetPoint"/>
                        <Array as="points">
                            <mxPoint x="-326" y="-1484"/>
                        </Array>
                    </mxGeometry>
                </mxCell>
                <mxCell id="VtJmyBHDyWRbUc47lEjj-40" value="1" style="edgeLabel;html=1;align=center;verticalAlign=middle;resizable=0;points=[];" parent="VtJmyBHDyWRbUc47lEjj-8" vertex="1" connectable="0">
                    <mxGeometry x="0.8788" y="1" relative="1" as="geometry">
                        <mxPoint x="-1" as="offset"/>
                    </mxGeometry>
                </mxCell>
                <mxCell id="VtJmyBHDyWRbUc47lEjj-41" value="1" style="edgeLabel;html=1;align=center;verticalAlign=middle;resizable=0;points=[];" parent="VtJmyBHDyWRbUc47lEjj-8" vertex="1" connectable="0">
                    <mxGeometry x="-0.8927" y="2" relative="1" as="geometry">
                        <mxPoint x="-12" y="-3" as="offset"/>
                    </mxGeometry>
                </mxCell>
                <mxCell id="VtJmyBHDyWRbUc47lEjj-10" style="edgeStyle=elbowEdgeStyle;rounded=0;orthogonalLoop=1;jettySize=auto;html=1;endArrow=none;endFill=0;entryX=1;entryY=0.5;entryDx=0;entryDy=0;exitX=0.5;exitY=0;exitDx=0;exitDy=0;" parent="1" source="zlj9pYZFUHFNdbRgXwXU-27" target="8Mmd9B4hTZwMJkrOTyFo-13" edge="1">
                    <mxGeometry relative="1" as="geometry">
                        <mxPoint x="1041" y="-1130" as="targetPoint"/>
                        <Array as="points">
                            <mxPoint x="1231" y="-1230"/>
                            <mxPoint x="1190" y="-1070"/>
                            <mxPoint x="1171" y="-1080"/>
                            <mxPoint x="1281" y="-1680"/>
                            <mxPoint x="1441" y="-1660"/>
                        </Array>
                        <mxPoint x="1170" y="-1020" as="sourcePoint"/>
                    </mxGeometry>
                </mxCell>
                <mxCell id="VtJmyBHDyWRbUc47lEjj-26" value="0...*" style="edgeLabel;html=1;align=center;verticalAlign=middle;resizable=0;points=[];" parent="VtJmyBHDyWRbUc47lEjj-10" vertex="1" connectable="0">
                    <mxGeometry x="-0.9694" y="3" relative="1" as="geometry">
                        <mxPoint x="18" y="-14" as="offset"/>
                    </mxGeometry>
                </mxCell>
                <mxCell id="VtJmyBHDyWRbUc47lEjj-27" value="1" style="edgeLabel;html=1;align=center;verticalAlign=middle;resizable=0;points=[];" parent="VtJmyBHDyWRbUc47lEjj-10" vertex="1" connectable="0">
                    <mxGeometry x="0.9629" y="-1" relative="1" as="geometry">
                        <mxPoint x="11" y="1" as="offset"/>
                    </mxGeometry>
                </mxCell>
                <mxCell id="VtJmyBHDyWRbUc47lEjj-48" value="commande" style="swimlane;fontStyle=1;align=center;verticalAlign=top;childLayout=stackLayout;horizontal=1;startSize=26;horizontalStack=0;resizeParent=1;resizeParentMax=0;resizeLast=0;collapsible=1;marginBottom=0;" parent="1" vertex="1">
                    <mxGeometry x="422" y="-2187" width="160" height="180" as="geometry"/>
                </mxCell>
                <mxCell id="VtJmyBHDyWRbUc47lEjj-49" value="+ address&#10;+ phone&#10;+ status&#10;+ payementMethodes&#10;+ products[]" style="text;strokeColor=none;fillColor=none;align=left;verticalAlign=top;spacingLeft=4;spacingRight=4;overflow=hidden;rotatable=0;points=[[0,0.5],[1,0.5]];portConstraint=eastwest;" parent="VtJmyBHDyWRbUc47lEjj-48" vertex="1">
                    <mxGeometry y="26" width="160" height="84" as="geometry"/>
                </mxCell>
                <mxCell id="VtJmyBHDyWRbUc47lEjj-50" value="" style="line;strokeWidth=1;fillColor=none;align=left;verticalAlign=middle;spacingTop=-1;spacingLeft=3;spacingRight=3;rotatable=0;labelPosition=right;points=[];portConstraint=eastwest;strokeColor=inherit;" parent="VtJmyBHDyWRbUc47lEjj-48" vertex="1">
                    <mxGeometry y="110" width="160" height="8" as="geometry"/>
                </mxCell>
                <mxCell id="VtJmyBHDyWRbUc47lEjj-51" value="+ createCommande&#10;+ getCommande&#10;+ deleteCommande" style="text;strokeColor=none;fillColor=none;align=left;verticalAlign=top;spacingLeft=4;spacingRight=4;overflow=hidden;rotatable=0;points=[[0,0.5],[1,0.5]];portConstraint=eastwest;" parent="VtJmyBHDyWRbUc47lEjj-48" vertex="1">
                    <mxGeometry y="118" width="160" height="62" as="geometry"/>
                </mxCell>
                <mxCell id="VtJmyBHDyWRbUc47lEjj-68" style="edgeStyle=orthogonalEdgeStyle;rounded=0;orthogonalLoop=1;jettySize=auto;html=1;endArrow=none;endFill=0;entryX=0;entryY=0.5;entryDx=0;entryDy=0;" parent="1" source="VtJmyBHDyWRbUc47lEjj-51" target="zlj9pYZFUHFNdbRgXwXU-24" edge="1">
                    <mxGeometry relative="1" as="geometry">
                        <Array as="points">
                            <mxPoint x="712" y="-2037"/>
                            <mxPoint x="712" y="-2120"/>
                        </Array>
                    </mxGeometry>
                </mxCell>
                <mxCell id="4fSHhRv6Qn75-ox5Rb2t-1" value="0...*" style="edgeLabel;html=1;align=center;verticalAlign=middle;resizable=0;points=[];" parent="VtJmyBHDyWRbUc47lEjj-68" vertex="1" connectable="0">
                    <mxGeometry x="-0.7923" relative="1" as="geometry">
                        <mxPoint x="2" y="-9" as="offset"/>
                    </mxGeometry>
                </mxCell>
                <mxCell id="4fSHhRv6Qn75-ox5Rb2t-2" value="1...*" style="edgeLabel;html=1;align=center;verticalAlign=middle;resizable=0;points=[];" parent="VtJmyBHDyWRbUc47lEjj-68" vertex="1" connectable="0">
                    <mxGeometry x="0.9037" y="1" relative="1" as="geometry">
                        <mxPoint x="-17" as="offset"/>
                    </mxGeometry>
                </mxCell>
                <mxCell id="VtJmyBHDyWRbUc47lEjj-70" style="edgeStyle=orthogonalEdgeStyle;rounded=0;orthogonalLoop=1;jettySize=auto;html=1;entryX=1;entryY=0.5;entryDx=0;entryDy=0;endArrow=none;endFill=0;" parent="1" source="VtJmyBHDyWRbUc47lEjj-49" target="8Mmd9B4hTZwMJkrOTyFo-26" edge="1">
                    <mxGeometry relative="1" as="geometry">
                        <mxPoint x="-310" y="-1650" as="targetPoint"/>
                        <Array as="points">
                            <mxPoint x="-240" y="-2152"/>
                            <mxPoint x="-240" y="-1172"/>
                        </Array>
                    </mxGeometry>
                </mxCell>
                <mxCell id="4fSHhRv6Qn75-ox5Rb2t-9" value="0...*" style="edgeLabel;html=1;align=center;verticalAlign=middle;resizable=0;points=[];" parent="VtJmyBHDyWRbUc47lEjj-70" vertex="1" connectable="0">
                    <mxGeometry x="-0.9654" y="1" relative="1" as="geometry">
                        <mxPoint as="offset"/>
                    </mxGeometry>
                </mxCell>
                <mxCell id="4fSHhRv6Qn75-ox5Rb2t-10" value="1" style="edgeLabel;html=1;align=center;verticalAlign=middle;resizable=0;points=[];" parent="VtJmyBHDyWRbUc47lEjj-70" vertex="1" connectable="0">
                    <mxGeometry x="0.9494" relative="1" as="geometry">
                        <mxPoint x="-30" y="-7" as="offset"/>
                    </mxGeometry>
                </mxCell>
                <mxCell id="4fSHhRv6Qn75-ox5Rb2t-18" style="edgeStyle=orthogonalEdgeStyle;rounded=0;orthogonalLoop=1;jettySize=auto;html=1;entryX=0;entryY=0.5;entryDx=0;entryDy=0;endArrow=none;endFill=0;" parent="1" source="4fSHhRv6Qn75-ox5Rb2t-13" target="zlj9pYZFUHFNdbRgXwXU-28" edge="1">
                    <mxGeometry relative="1" as="geometry">
                        <mxPoint x="1090" y="-930" as="targetPoint"/>
                        <Array as="points">
                            <mxPoint x="1030" y="-1070"/>
                            <mxPoint x="1030" y="-1070"/>
                        </Array>
                    </mxGeometry>
                </mxCell>
                <mxCell id="4fSHhRv6Qn75-ox5Rb2t-23" value="0...*" style="edgeLabel;html=1;align=center;verticalAlign=middle;resizable=0;points=[];" parent="4fSHhRv6Qn75-ox5Rb2t-18" vertex="1" connectable="0">
                    <mxGeometry x="-0.7322" relative="1" as="geometry">
                        <mxPoint as="offset"/>
                    </mxGeometry>
                </mxCell>
                <mxCell id="4fSHhRv6Qn75-ox5Rb2t-24" value="1" style="edgeLabel;html=1;align=center;verticalAlign=middle;resizable=0;points=[];" parent="4fSHhRv6Qn75-ox5Rb2t-18" vertex="1" connectable="0">
                    <mxGeometry x="0.7405" y="1" relative="1" as="geometry">
                        <mxPoint as="offset"/>
                    </mxGeometry>
                </mxCell>
                <mxCell id="4fSHhRv6Qn75-ox5Rb2t-19" style="rounded=0;orthogonalLoop=1;jettySize=auto;html=1;endArrow=none;endFill=0;" parent="1" source="4fSHhRv6Qn75-ox5Rb2t-13" target="8Mmd9B4hTZwMJkrOTyFo-13" edge="1">
                    <mxGeometry relative="1" as="geometry"/>
                </mxCell>
                <mxCell id="4fSHhRv6Qn75-ox5Rb2t-25" value="0...*" style="edgeLabel;html=1;align=center;verticalAlign=middle;resizable=0;points=[];" parent="4fSHhRv6Qn75-ox5Rb2t-19" vertex="1" connectable="0">
                    <mxGeometry x="-0.6932" y="-1" relative="1" as="geometry">
                        <mxPoint as="offset"/>
                    </mxGeometry>
                </mxCell>
                <mxCell id="4fSHhRv6Qn75-ox5Rb2t-26" value="1" style="edgeLabel;html=1;align=center;verticalAlign=middle;resizable=0;points=[];" parent="4fSHhRv6Qn75-ox5Rb2t-19" vertex="1" connectable="0">
                    <mxGeometry x="0.7308" y="-1" relative="1" as="geometry">
                        <mxPoint x="-6" as="offset"/>
                    </mxGeometry>
                </mxCell>
                <mxCell id="4fSHhRv6Qn75-ox5Rb2t-13" value="Candidature" style="swimlane;fontStyle=1;align=center;verticalAlign=top;childLayout=stackLayout;horizontal=1;startSize=30;horizontalStack=0;resizeParent=1;resizeParentMax=0;resizeLast=0;collapsible=1;marginBottom=0;fillColor=#e1d5e7;strokeColor=#9673a6;" parent="1" vertex="1">
                    <mxGeometry x="878" y="-1132" width="160" height="150" as="geometry">
                        <mxRectangle x="500" y="-190" width="70" height="30" as="alternateBounds"/>
                    </mxGeometry>
                </mxCell>
                <mxCell id="4fSHhRv6Qn75-ox5Rb2t-14" value="+ candidateFirstName&#10;+ candidateLastName&#10;+ status" style="text;strokeColor=none;fillColor=none;align=left;verticalAlign=top;spacingLeft=4;spacingRight=4;overflow=hidden;rotatable=0;points=[[0,0.5],[1,0.5]];portConstraint=eastwest;" parent="4fSHhRv6Qn75-ox5Rb2t-13" vertex="1">
                    <mxGeometry y="30" width="160" height="60" as="geometry"/>
                </mxCell>
                <mxCell id="4fSHhRv6Qn75-ox5Rb2t-15" value="" style="line;strokeWidth=1;fillColor=none;align=left;verticalAlign=middle;spacingTop=-1;spacingLeft=3;spacingRight=3;rotatable=0;labelPosition=right;points=[];portConstraint=eastwest;strokeColor=inherit;" parent="4fSHhRv6Qn75-ox5Rb2t-13" vertex="1">
                    <mxGeometry y="90" width="160" height="10" as="geometry"/>
                </mxCell>
                <mxCell id="4fSHhRv6Qn75-ox5Rb2t-16" value="+ createCandidture&#10;+ deleteCandidature&#10;+ acceptCandidature" style="text;strokeColor=none;fillColor=none;align=left;verticalAlign=top;spacingLeft=4;spacingRight=4;overflow=hidden;rotatable=0;points=[[0,0.5],[1,0.5]];portConstraint=eastwest;" parent="4fSHhRv6Qn75-ox5Rb2t-13" vertex="1">
                    <mxGeometry y="100" width="160" height="50" as="geometry"/>
                </mxCell>
                <mxCell id="4fSHhRv6Qn75-ox5Rb2t-20" style="edgeStyle=orthogonalEdgeStyle;rounded=0;orthogonalLoop=1;jettySize=auto;html=1;exitX=0.555;exitY=1.002;exitDx=0;exitDy=0;exitPerimeter=0;endArrow=none;endFill=0;" parent="1" source="4fSHhRv6Qn75-ox5Rb2t-16" target="8Mmd9B4hTZwMJkrOTyFo-28" edge="1">
                    <mxGeometry relative="1" as="geometry">
                        <mxPoint x="-161" y="-1190" as="targetPoint"/>
                        <Array as="points">
                            <mxPoint x="967" y="-930"/>
                            <mxPoint x="-366" y="-930"/>
                        </Array>
                    </mxGeometry>
                </mxCell>
                <mxCell id="4fSHhRv6Qn75-ox5Rb2t-21" value="0...*" style="edgeLabel;html=1;align=center;verticalAlign=middle;resizable=0;points=[];" parent="4fSHhRv6Qn75-ox5Rb2t-20" vertex="1" connectable="0">
                    <mxGeometry x="-0.9855" y="-2" relative="1" as="geometry">
                        <mxPoint as="offset"/>
                    </mxGeometry>
                </mxCell>
                <mxCell id="4fSHhRv6Qn75-ox5Rb2t-22" value="1" style="edgeLabel;html=1;align=center;verticalAlign=middle;resizable=0;points=[];" parent="4fSHhRv6Qn75-ox5Rb2t-20" vertex="1" connectable="0">
                    <mxGeometry x="0.9868" y="-1" relative="1" as="geometry">
                        <mxPoint as="offset"/>
                    </mxGeometry>
                </mxCell>
                <mxCell id="6gp9Nw1q-MzLwlUtm12N-18" style="edgeStyle=orthogonalEdgeStyle;rounded=0;orthogonalLoop=1;jettySize=auto;html=1;endArrow=none;endFill=0;" parent="1" source="zlj9pYZFUHFNdbRgXwXU-30" target="8Mmd9B4hTZwMJkrOTyFo-28" edge="1">
                    <mxGeometry relative="1" as="geometry">
                        <mxPoint x="-70" y="-1020" as="targetPoint"/>
                        <Array as="points">
                            <mxPoint x="1220" y="-700"/>
                            <mxPoint x="-420" y="-700"/>
                        </Array>
                        <mxPoint x="1261" y="-960" as="sourcePoint"/>
                    </mxGeometry>
                </mxCell>
                <mxCell id="6gp9Nw1q-MzLwlUtm12N-19" value="0...*" style="edgeLabel;html=1;align=center;verticalAlign=middle;resizable=0;points=[];" parent="6gp9Nw1q-MzLwlUtm12N-18" vertex="1" connectable="0">
                    <mxGeometry x="-0.9855" y="-2" relative="1" as="geometry">
                        <mxPoint as="offset"/>
                    </mxGeometry>
                </mxCell>
                <mxCell id="6gp9Nw1q-MzLwlUtm12N-20" value="*" style="edgeLabel;html=1;align=center;verticalAlign=middle;resizable=0;points=[];" parent="6gp9Nw1q-MzLwlUtm12N-18" vertex="1" connectable="0">
                    <mxGeometry x="0.9868" y="-1" relative="1" as="geometry">
                        <mxPoint x="-6" y="-5" as="offset"/>
                    </mxGeometry>
                </mxCell>
                <mxCell id="jIOh63rb734gAdqWBJmO-12" style="edgeStyle=orthogonalEdgeStyle;rounded=0;orthogonalLoop=1;jettySize=auto;html=1;entryX=0.488;entryY=1.01;entryDx=0;entryDy=0;entryPerimeter=0;endArrow=block;endFill=0;" parent="1" edge="1">
                    <mxGeometry relative="1" as="geometry">
                        <Array as="points">
                            <mxPoint x="470" y="-1611"/>
                            <mxPoint x="448" y="-1611"/>
                        </Array>
                        <mxPoint x="448.0799999999999" y="-1636.1799999999998" as="targetPoint"/>
                    </mxGeometry>
                </mxCell>
                <mxCell id="jIOh63rb734gAdqWBJmO-10" style="edgeStyle=orthogonalEdgeStyle;rounded=0;orthogonalLoop=1;jettySize=auto;html=1;entryX=0.459;entryY=0.997;entryDx=0;entryDy=0;entryPerimeter=0;endArrow=block;endFill=0;" parent="1" edge="1">
                    <mxGeometry relative="1" as="geometry">
                        <mxPoint x="443.44000000000005" y="-1637.246" as="targetPoint"/>
                    </mxGeometry>
                </mxCell>
                <mxCell id="jIOh63rb734gAdqWBJmO-17" value="Rating" style="swimlane;fontStyle=1;align=center;verticalAlign=top;childLayout=stackLayout;horizontal=1;startSize=26;horizontalStack=0;resizeParent=1;resizeParentMax=0;resizeLast=0;collapsible=1;marginBottom=0;" parent="1" vertex="1">
                    <mxGeometry x="582" y="-1987" width="160" height="162" as="geometry">
                        <mxRectangle x="500" y="-190" width="70" height="30" as="alternateBounds"/>
                    </mxGeometry>
                </mxCell>
                <mxCell id="jIOh63rb734gAdqWBJmO-18" value="+ Ratings&#10;+ Review" style="text;strokeColor=none;fillColor=none;align=left;verticalAlign=top;spacingLeft=4;spacingRight=4;overflow=hidden;rotatable=0;points=[[0,0.5],[1,0.5]];portConstraint=eastwest;" parent="jIOh63rb734gAdqWBJmO-17" vertex="1">
                    <mxGeometry y="26" width="160" height="44" as="geometry"/>
                </mxCell>
                <mxCell id="jIOh63rb734gAdqWBJmO-19" value="" style="line;strokeWidth=1;fillColor=none;align=left;verticalAlign=middle;spacingTop=-1;spacingLeft=3;spacingRight=3;rotatable=0;labelPosition=right;points=[];portConstraint=eastwest;strokeColor=inherit;" parent="jIOh63rb734gAdqWBJmO-17" vertex="1">
                    <mxGeometry y="70" width="160" height="10" as="geometry"/>
                </mxCell>
                <mxCell id="jIOh63rb734gAdqWBJmO-20" value="+ createRating&#10;+ updateRating&#10;+ getRating&#10;+ getRatings&#10;+ deleteTating" style="text;strokeColor=none;fillColor=none;align=left;verticalAlign=top;spacingLeft=4;spacingRight=4;overflow=hidden;rotatable=0;points=[[0,0.5],[1,0.5]];portConstraint=eastwest;" parent="jIOh63rb734gAdqWBJmO-17" vertex="1">
                    <mxGeometry y="80" width="160" height="82" as="geometry"/>
                </mxCell>
                <mxCell id="jIOh63rb734gAdqWBJmO-22" style="edgeStyle=orthogonalEdgeStyle;rounded=0;orthogonalLoop=1;jettySize=auto;html=1;endArrow=none;endFill=0;exitX=0;exitY=0.5;exitDx=0;exitDy=0;" parent="1" source="jIOh63rb734gAdqWBJmO-20" target="8Mmd9B4hTZwMJkrOTyFo-43" edge="1">
                    <mxGeometry relative="1" as="geometry">
                        <Array as="points">
                            <mxPoint x="492" y="-1866"/>
                            <mxPoint x="492" y="-1886"/>
                        </Array>
                    </mxGeometry>
                </mxCell>
                <mxCell id="w-I3g8NG5IzQ1lZ0gRGn-1" value="0...*" style="edgeLabel;html=1;align=center;verticalAlign=middle;resizable=0;points=[];" parent="jIOh63rb734gAdqWBJmO-22" vertex="1" connectable="0">
                    <mxGeometry x="-0.735" relative="1" as="geometry">
                        <mxPoint as="offset"/>
                    </mxGeometry>
                </mxCell>
                <mxCell id="w-I3g8NG5IzQ1lZ0gRGn-2" value="1" style="edgeLabel;html=1;align=center;verticalAlign=middle;resizable=0;points=[];" parent="jIOh63rb734gAdqWBJmO-22" vertex="1" connectable="0">
                    <mxGeometry x="0.8089" y="-1" relative="1" as="geometry">
                        <mxPoint as="offset"/>
                    </mxGeometry>
                </mxCell>
                <mxCell id="4" style="edgeStyle=none;html=1;entryX=0;entryY=0.5;entryDx=0;entryDy=0;exitX=1;exitY=0.5;exitDx=0;exitDy=0;endArrow=none;endFill=0;" parent="1" source="jIOh63rb734gAdqWBJmO-18" target="zlj9pYZFUHFNdbRgXwXU-26" edge="1">
                    <mxGeometry relative="1" as="geometry"/>
                </mxCell>
                <mxCell id="5" value="0...*" style="edgeLabel;html=1;align=center;verticalAlign=middle;resizable=0;points=[];" parent="4" vertex="1" connectable="0">
                    <mxGeometry x="0.7545" relative="1" as="geometry">
                        <mxPoint x="-26" y="50" as="offset"/>
                    </mxGeometry>
                </mxCell>
                <mxCell id="6" value="1" style="edgeLabel;html=1;align=center;verticalAlign=middle;resizable=0;points=[];" parent="4" vertex="1" connectable="0">
                    <mxGeometry x="0.7612" y="2" relative="1" as="geometry">
                        <mxPoint as="offset"/>
                    </mxGeometry>
                </mxCell>
            </root>
        </mxGraphModel>
    </diagram>
</mxfile>
